Coordinates
version=1
nRows=11
nColumns=38
inDegrees=no

Units are S.I. units (second, meters, Newtons, ...)
If the header above contains a line with 'inDegrees', this indicates whether rotational values are in degrees (yes) or radians (no).

endheader
time	pelvis_tilt	pelvis_list	pelvis_rotation	pelvis_tx	pelvis_ty	pelvis_tz	hip_flexion_r	hip_adduction_r	hip_rotation_r	knee_angle_r	ankle_angle_r	subtalar_angle_r	mtp_angle_r	hip_flexion_l	hip_adduction_l	hip_rotation_l	knee_angle_l	ankle_angle_l	subtalar_angle_l	mtp_angle_l	lumbar_extension	lumbar_bending	lumbar_rotation	arm_flex_r	arm_add_r	arm_rot_r	elbow_flex_r	pro_sup_r	wrist_flex_r	wrist_dev_r	arm_flex_l	arm_add_l	arm_rot_l	elbow_flex_l	pro_sup_l	wrist_flex_l	wrist_dev_l
1.9	-0.158907	0.069704	0.0895961	0.903322	1.00859	-0.342971	0.0838603	-0.0950889	-0.241779	-1.81668	-0.00107296	-0.1	-0.00207031	0.60761	0.0501242	-0.53447	-0.571344	0.35501	0.1	-0.00152637	-0.107648	-0.144439	0.133675	-0.491831	-0.230236	-0.0651348	2.02088	1.7358	5.73056e-06	8.11363e-06	-0.60082	-0.260484	-0.213676	2.11298	1.56977	9.36602e-06	5.24658e-06
1.91	-0.163134	0.0687025	0.0972891	0.899435	1.00143	-0.342647	0.161192	-0.0999252	-0.23876	-1.91228	0.0222689	-0.1	-0.00207031	0.603496	0.0496652	-0.494353	-0.646408	0.427385	0.1	-0.00152637	-0.113155	-0.143253	0.101555	-0.49253	-0.228881	-0.0794307	1.96544	1.74396	5.73056e-06	8.11363e-06	-0.552749	-0.273528	-0.204161	2.08409	1.57412	9.36602e-06	5.24658e-06
1.92	-0.168075	0.0649341	0.104594	0.89521	0.995144	-0.342306	0.244879	-0.102652	-0.235178	-1.99478	0.0498191	-0.1	-0.00207031	0.59618	0.0465405	-0.452182	-0.717959	0.506763	0.1	-0.00152637	-0.11779	-0.137971	0.0675579	-0.492752	-0.22836	-0.0927617	1.91157	1.7501	5.73056e-06	8.11363e-06	-0.503394	-0.285629	-0.192308	2.05948	1.57538	9.36602e-06	5.24658e-06
1.93	-0.173483	0.0578911	0.110982	0.890856	0.98993	-0.342014	0.333248	-0.102716	-0.231201	-2.06172	0.0808367	-0.1	-0.00207031	0.583188	0.0400822	-0.411428	-0.779811	0.586912	0.1	-0.00152637	-0.120932	-0.127962	0.0329559	-0.49383	-0.228645	-0.104928	1.86186	1.75274	5.73056e-06	8.11363e-06	-0.453858	-0.296232	-0.17788	2.04163	1.57371	9.36602e-06	5.24658e-06
1.94	-0.179093	0.047217	0.115816	0.886647	0.985889	-0.341836	0.424119	-0.0996319	-0.227143	-2.11099	0.113991	-0.1	-0.00207031	0.562294	0.0296022	-0.37532	-0.827016	0.66117	0.1	-0.00152637	-0.121908	-0.112762	-0.000792502	-0.497341	-0.229775	-0.115847	1.81915	1.75079	5.73056e-06	8.11363e-06	-0.405512	-0.30476	-0.160817	2.03279	1.56994	9.36602e-06	5.24658e-06
1.95	-0.184605	0.0328163	0.118398	0.882915	0.983153	-0.341801	0.514947	-0.0930476	-0.223375	-2.14106	0.147513	-0.1	-0.00207031	0.531781	0.0146021	-0.346765	-0.856265	0.723061	0.1	-0.00152637	-0.120186	-0.0922617	-0.0322442	-0.504777	-0.231801	-0.125528	1.7861	1.74392	5.73056e-06	8.11363e-06	-0.359863	-0.310666	-0.141325	2.03468	1.56539	9.36602e-06	5.24658e-06
1.96	-0.189703	0.0149493	0.118056	0.879991	0.981853	-0.341899	0.603056	-0.0828109	-0.22025	-2.15114	0.179573	-0.1	-0.00207031	0.490642	-0.00502001	-0.328259	-0.865981	0.766783	0.1	-0.00152637	-0.115514	-0.0668526	-0.060163	-0.517217	-0.234695	-0.134054	1.76466	1.73283	5.73056e-06	8.11363e-06	-0.31835	-0.313529	-0.119866	2.04816	1.5615	9.36602e-06	5.24658e-06
1.97	-0.19411	-0.00573785	0.114233	0.878142	0.982064	-0.342081	0.685889	-0.0690057	-0.218012	-2.14124	0.208569	-0.1	-0.00207031	0.438676	-0.0288169	-0.321749	-0.856162	0.787588	0.1	-0.00152637	-0.107982	-0.0374617	-0.0836536	-0.535135	-0.238268	-0.141586	1.75568	1.71913	5.73056e-06	8.11363e-06	-0.282149	-0.313144	-0.0970278	2.07306	1.5596	9.36602e-06	5.24658e-06
1.98	-0.197633	-0.0282507	0.106598	0.877539	0.983782	-0.342272	0.761215	-0.0520209	-0.216755	-2.11206	0.233443	-0.1	-0.00207031	0.376523	-0.0557212	-0.32843	-0.828153	0.782173	0.1	-0.00152637	-0.0979758	-0.00546732	-0.10223	-0.558381	-0.242167	-0.148388	1.75882	1.70495	5.73056e-06	8.11363e-06	-0.252031	-0.309555	-0.0733438	2.10821	1.56058	9.36602e-06	5.24658e-06
1.99	-0.200193	-0.0513389	0.0951344	0.878248	0.986906	-0.34239	0.827257	-0.0325977	-0.216418	-2.06484	0.253741	-0.1	-0.00207031	0.305633	-0.0840952	-0.348483	-0.784442	0.749043	0.1	-0.00152637	-0.0860761	0.0274772	-0.115833	-0.586301	-0.245917	-0.154846	1.77267	1.69237	5.73056e-06	8.11363e-06	-0.228293	-0.303036	-0.0491301	2.15156	1.5649	9.36602e-06	5.24658e-06
2	-0.201818	-0.0736262	0.0802131	0.880224	0.991244	-0.342369	0.88276	-0.0118467	-0.216835	-2.00115	0.26954	-0.1	-0.00207031	0.228209	-0.111906	-0.380824	-0.72855	0.688834	0.1	-0.00152637	-0.0729517	0.0596515	-0.124818	-0.61792	-0.249003	-0.161442	1.79512	1.68281	5.73056e-06	8.11363e-06	-0.210764	-0.294042	-0.0244361	2.20059	1.5726	9.36602e-06	5.24658e-06
